<?xml version="1.0" encoding="UTF-8"?>
<svg id="Capa_1" data-name="Capa 1" xmlns="http://www.w3.org/2000/svg" viewBox="0 0 1024 1024">
  <defs>
    <style>
      .cls-1 {
        fill: #1b3b52;
      }

      .cls-2 {
        fill: #e11843;
      }

      .cls-3 {
        fill: #fff;
      }

      .cls-4 {
        fill: #66a04d;
      }
    </style>
  </defs>
  <path class="cls-3" d="M871.01,689.9c-4.09,17.89-14.73,34.04-30.77,46.69-13.57,10.7-30.75,18.82-51.08,24.16-21.59,5.65-46.88,8.52-75.2,8.52-13.58,0-27.89-.66-42.86-1.93l-130.05,177.98c-8.56,11.71-22.34,18.71-36.84,18.71s-27.88-6.8-36.46-18.18c-35.13-46.68-153.79-206.25-205.28-299.71-3.19-5.78-4.7-12.12-4.65-18.41-21.51-14.03-39.98-28.18-55-42.18-22.37-20.85-37.83-42.15-45.98-63.27-7.21-18.69-9.17-36.48-5.85-52.9,3.85-19.02,14.36-35.37,31.22-48.59.99-.77,2-1.48,3.04-2.14-1.43-12.35-2.16-24.79-2.16-37.31,0-43.28,8.51-85.31,25.3-124.93,16.19-38.23,39.36-72.57,68.85-102.07,29.5-29.49,63.83-52.66,102.06-68.85,19.81-8.39,40.23-14.72,61.1-18.94s42.2-6.35,63.84-6.35c4.24,0,8.52.09,12.75.25,80.85,3.16,157.04,36.68,214.55,94.39,57.51,57.72,90.76,134.03,93.64,214.89,1.54,43.45-5.49,85.9-20.9,126.16-.34.88-.71,1.75-1.09,2.6,3.87,7.02,5.99,15,5.99,23.31v57.68c2.86,1.8,5.74,3.82,8.73,5.99,5.25,3.8,10.79,8.12,12.92,9.93,44.98,38.39,44.48,75.68,40.18,94.51Z"/>
  <path class="cls-1" d="M295.28,628.04c51.02,92.59,172.71,255.8,202.41,295.25,3.29,4.37,9.86,4.32,13.09-.09l131.63-180.14c-10.51.16-39.63-9.85-47.2-4.34l-86.09,114.48c-3.34,4.44-10.01,4.29-13.19-.26-44.14-63.18-93.7-122.72-132.58-189.47l-68.06-35.43Z"/>
  <rect class="cls-1" x="314.1" y="506.72" width="29.76" height="29.76" rx="1.95" ry="1.95"/>
  <rect class="cls-1" x="437.38" y="524.48" width="29.76" height="29.76" rx="1.95" ry="1.95"/>
  <rect class="cls-1" x="418.7" y="410.49" width="29.76" height="29.76" rx="1.95" ry="1.95"/>
  <rect class="cls-1" x="555.68" y="506.58" width="29.76" height="29.76" rx="1.95" ry="1.95"/>
  <rect class="cls-1" x="679.05" y="525.1" width="29.76" height="29.76" rx="1.95" ry="1.95"/>
  <path class="cls-2" d="M784.62,609.21l21.25,29.96c25.35,43.83-21,59.06-56.03,63.86-130.78,17.92-423.75-74.25-519.43-168.02-12.21-11.97-31.12-35.43-33.23-52.5-1.69-13.64,2.62-20.69,8.16-32.24-20.07,15.74-22.4,35.53-13.54,58.52,26.05,67.58,157.25,130.78,222.15,156.35,94.45,37.21,267.35,85.12,365.7,59.34,58.94-15.45,76.37-58.35,26.85-100.58-2.29-1.95-20.5-16.07-21.88-14.69Z"/>
  <path class="cls-4" d="M314.1,565.31c9.55,9.9,22.23,16.66,34.14,23.34,62.35,34.99,139.88,60.61,210.09,74.31,43.77,8.54,151.44,24.33,189.31,4.43,24.61-12.93,24.68-45.45,2.12-59.94-38.73-24.87-123.5-.79-169.07,1.73-23.9,1.32-48.2-.95-72.11.04l24.69,7.69c52.86,22.12,149.64-10.62,195.8,7.04,32.2,12.32-2.76,25.74-20.72,27.15-93.11,7.31-229.8-24.9-317.97-56.5-22.47-8.05-44.71-20.05-66.41-27.69-3.32-1.17-6.28-2.12-9.88-1.6Z"/>
  <path class="cls-1" d="M223.32,515.87c3.98,4.93,8.23,9.64,12.4,13.73,10.9,10.68,24.7,21.56,40.97,32.43l-.04-49.59c0-3.46,1.65-6.72,4.45-8.76l42.61-31.09c3.79-2.76,8.93-2.78,12.73-.03l43.13,31.15c2.82,2.04,4.49,5.3,4.49,8.78v4.32h0s0,4.69,0,4.69v62.56c2.97,1.19,5.94,2.34,8.9,3.4,2.86,1.03,5.82,2.06,8.82,3.1v-64.74s47.06-34.34,47.06-34.34c3.79-2.76,8.93-2.78,12.73-.03l43.12,31.15c2.82,2.04,4.49,5.3,4.49,8.78v70.23c4.05-.16,8.33-.23,13.08-.23,1.54,0,3.09.03,4.64.05v-79.1c0-3.48-1.67-6.74-4.49-8.78l-7.06-5.1,49.13-35.85c3.79-2.76,8.93-2.78,12.73-.03l43.12,31.15c2.82,2.04,4.49,5.3,4.49,8.78v83.6c5.76-.86,11.68-1.74,17.72-2.58v-68.27c0-3.65,1.84-7.05,4.89-9.06l40.25-26.4c3.61-2.37,8.27-2.37,11.88,0l49.55,32.5c3.05,2,4.89,5.41,4.89,9.06v69.79c8.51,5.5,14.62,13.36,17.72,22.33v-101.68c0-3.65-1.84-7.05-4.89-9.06l-67.91-44.55c-3.27-2.15-7.44-2.36-10.92-.56l-45.84,23.71v-154.85h3.73c1.79,0,3.24-1.45,3.24-3.24v-11.14c0-1.79-1.45-3.24-3.24-3.24h-3.73v-50.98h3.73c1.79,0,3.24-1.45,3.24-3.24v-11.14c0-1.79-1.45-3.24-3.24-3.24h-9.47l-27.28-53.87c-.98-1.93-3.73-1.93-4.71,0l-27.28,53.87h-9.47c-1.79,0-3.24,1.45-3.24,3.24v11.14c0,1.79,1.45,3.24,3.24,3.24h3.73v50.98h-3.73c-1.79,0-3.24,1.45-3.24,3.24v11.14c0,1.79,1.45,3.24,3.24,3.24h3.73v110.38l-2.27.5-63.3,32.87v-73.26c0-3.48-1.67-6.74-4.49-8.78l-61.84-44.68c-3.33-2.4-7.72-2.72-11.36-.82l-100.07,52.3c-3.57,1.87-5.81,5.57-5.81,9.6v35.57l-93.17,49.23c-3.55,1.88-5.77,5.56-5.77,9.58v6.91ZM594.92,286.89c0-6.73,5.3-12.19,11.84-12.19s11.84,5.46,11.84,12.19v28.8h-23.69v-28.8ZM594.92,356.11c0-6.73,5.3-12.19,11.84-12.19s11.84,5.46,11.84,12.19v28.8h-23.69v-28.8ZM385.15,407.21l42.62-31.09c3.79-2.76,8.93-2.78,12.73-.03l43.13,31.15c2.82,2.04,4.49,5.3,4.49,8.78v72.76l-27.48-19.85c-3.34-2.41-7.75-2.72-11.39-.8l-51.3,27.02-17.24-12.45v-66.73c0-3.46,1.65-6.71,4.45-8.75Z"/>
  <path class="cls-1" d="M274.04,451.49c-7.75-25.38-11.43-52.52-10.22-80.67,5.35-124.65,106.65-225.35,231.34-229.97,136.82-5.06,249.74,104.77,249.74,240.48,0,29.02-5.17,56.85-14.62,82.63-2.19,5.98-.03,12.67,5.3,16.16l13.47,8.84c7.27,4.77,17.14,1.64,20.25-6.49,13.19-34.45,19.85-72.1,18.45-111.43-5.25-147.58-124.63-267.4-272.19-273.16-161.54-6.3-294.97,123.29-294.97,283.45,0,29.89,4.66,58.72,13.28,85.8,2.59,8.15,11.88,12,19.44,8.01l14.11-7.46c5.84-3.08,8.57-9.88,6.64-16.19Z"/>
</svg>