<?xml version="1.0" encoding="UTF-8"?>
<svg id="Capa_1" data-name="Capa 1" xmlns="http://www.w3.org/2000/svg" viewBox="0 0 1024 1024">
  <defs>
    <style>
      .cls-1 {
        fill: #1b3b52;
      }

      .cls-2 {
        fill: #f6f4e8;
      }
    </style>
  </defs>
  <circle class="cls-1" cx="512" cy="520.84" r="486.54"/>
  <rect class="cls-2" x="299.85" y="515.04" width="32.04" height="32.04" rx="1.95" ry="1.95"/>
  <rect class="cls-2" x="432.58" y="534.17" width="32.04" height="32.04" rx="1.95" ry="1.95"/>
  <rect class="cls-2" x="412.47" y="411.45" width="32.04" height="32.04" rx="1.95" ry="1.95"/>
  <rect class="cls-2" x="559.94" y="514.89" width="32.04" height="32.04" rx="1.95" ry="1.95"/>
  <rect class="cls-2" x="692.76" y="534.84" width="32.04" height="32.04" rx="1.95" ry="1.95"/>
  <path class="cls-2" d="M256.72,455.58c-8.35-27.32-12.3-56.55-11-86.85,5.76-134.2,114.83-242.62,249.06-247.59,147.3-5.45,268.87,112.8,268.87,258.9,0,31.24-5.56,61.2-15.75,88.96-2.36,6.44-.03,13.64,5.7,17.4l14.5,9.51c7.83,5.14,18.45,1.76,21.8-6.99,14.2-37.08,21.37-77.62,19.86-119.97-5.65-158.88-134.18-287.89-293.05-294.09-173.91-6.79-317.57,132.73-317.57,305.17,0,32.19,5.02,63.22,14.29,92.37,2.79,8.77,12.8,12.92,20.93,8.62l15.19-8.03c6.28-3.32,9.22-10.64,7.14-17.43Z"/>
  <g>
    <path class="cls-2" d="M279.59,645.66c54.92,99.69,185.94,275.4,217.91,317.87,3.54,4.71,10.62,4.65,14.09-.1l141.71-193.95c-11.31.17-42.66-10.6-50.82-4.67l-92.68,123.26c-3.59,4.78-10.78,4.62-14.21-.28-47.52-68.02-100.87-132.12-142.74-203.99l-73.28-38.14Z"/>
    <path class="cls-2" d="M806.42,625.39l22.88,32.26c27.3,47.19-22.61,63.59-60.33,68.76-140.8,19.29-456.22-79.94-559.23-180.89-13.15-12.89-33.5-38.14-35.77-56.53-1.82-14.68,2.82-22.28,8.79-34.71-21.61,16.95-24.11,38.25-14.57,63,28.04,72.76,169.3,140.8,239.17,168.33,101.69,40.06,287.83,91.65,393.72,63.89,63.45-16.63,82.22-62.82,28.91-108.29-2.47-2.1-22.07-17.3-23.56-15.82Z"/>
    <path class="cls-2" d="M299.85,578.12c10.28,10.66,23.94,17.94,36.76,25.13,67.13,37.67,150.6,65.25,226.19,80,47.12,9.2,163.04,26.19,203.81,4.76,26.49-13.93,26.57-48.94,2.29-64.53-41.7-26.77-132.96-.85-182.02,1.87-25.73,1.42-51.89-1.02-77.64.05l26.59,8.28c56.91,23.82,161.11-11.43,210.8,7.58,34.67,13.27-2.97,27.71-22.31,29.23-100.24,7.87-247.4-26.81-342.33-60.83-24.19-8.67-48.14-21.58-71.5-29.81-3.58-1.26-6.76-2.28-10.63-1.73Z"/>
    <path class="cls-1" d="M856.18,610.5c-2.29-1.95-8.27-6.59-13.91-10.69-3.22-2.33-6.32-4.51-9.4-6.44v-62.1c0-8.95-2.28-17.53-6.44-25.1.42-.92.81-1.86,1.18-2.8,16.59-43.35,24.16-89.05,22.5-135.83-3.1-87.05-38.9-169.21-100.82-231.35-61.91-62.14-143.94-98.22-230.98-101.62-4.55-.17-9.17-.27-13.73-.27-23.3,0-46.26,2.29-68.73,6.84-22.47,4.54-44.45,11.36-65.78,20.39-41.16,17.43-78.12,42.38-109.88,74.13-31.75,31.76-56.7,68.73-74.13,109.89-18.08,42.66-27.24,87.9-27.24,134.5,0,13.48.78,26.87,2.33,40.17-1.12.71-2.21,1.48-3.27,2.31-18.16,14.24-29.47,31.84-33.62,52.32-3.57,17.67-1.46,36.83,6.29,56.95,8.77,22.75,25.42,45.68,49.5,68.12,16.16,15.07,36.05,30.31,59.21,45.41-.06,6.77,1.57,13.59,5,19.82,55.44,100.62,183.19,272.42,221.01,322.67,9.23,12.25,23.91,19.58,39.25,19.58s30.45-7.53,39.66-20.14l140.01-191.61c16.12,1.36,31.53,2.08,46.15,2.08,30.49,0,57.72-3.09,80.96-9.18,21.88-5.74,40.38-14.49,54.99-26.01,17.27-13.62,28.73-31,33.13-50.26,4.63-20.27,5.18-60.42-43.25-101.75ZM516.73,74.88c158.86,6.2,287.39,135.21,293.04,294.09,1.51,42.34-5.66,82.89-19.85,119.96-3.35,8.75-13.97,12.13-21.81,6.99l-14.5-9.51c-5.73-3.76-8.06-10.96-5.69-17.4,10.18-27.76,15.75-57.72,15.75-88.96,0-146.11-121.58-264.36-268.88-258.91-134.23,4.97-243.3,113.38-249.06,247.58-1.29,30.31,2.65,59.53,11.01,86.86,2.08,6.8-.86,14.11-7.15,17.43l-15.19,8.02c-8.14,4.3-18.13.15-20.92-8.62-9.28-29.14-14.3-60.18-14.3-92.37,0-172.43,143.64-311.95,317.56-305.17ZM310.49,579.85c23.37,8.23,47.31,21.14,71.5,29.81,94.94,34.01,242.1,68.69,342.34,60.82,19.33-1.52,56.97-15.97,22.31-29.22-49.69-19.02-153.89,16.23-210.8-7.59l-26.58-8.28c25.74-1.07,51.9,1.38,77.63-.05,49.06-2.71,140.32-28.64,182.02-1.87,24.29,15.6,24.21,50.61-2.28,64.54-40.78,21.42-156.69,4.43-203.82-4.77-75.58-14.74-159.05-42.32-226.18-80-12.82-7.19-26.48-14.47-36.76-25.13,3.87-.55,7.06.47,10.63,1.73ZM511.6,963.43c-3.47,4.76-10.55,4.81-14.09.1-31.97-42.47-162.99-218.19-217.91-317.87l73.27,38.14c41.86,71.87,95.22,135.98,142.73,204,3.42,4.9,10.62,5.05,14.21.28l92.68-123.26c8.15-5.93,39.51,4.85,50.82,4.68l-141.72,193.94ZM801.08,749.49c-105.89,27.76-292.03-23.83-393.72-63.89-69.87-27.52-211.13-95.57-239.17-168.33-9.53-24.75-7.03-46.06,14.57-63-5.96,12.44-10.61,20.02-8.78,34.71,2.27,18.39,22.62,43.64,35.77,56.52,103.01,100.95,418.42,200.19,559.23,180.89,37.72-5.16,87.62-21.56,60.32-68.76l-22.87-32.26c1.49-1.48,21.1,13.72,23.56,15.82,53.3,45.47,34.54,91.65-28.91,108.29Z"/>
  </g>
  <circle class="cls-2" cx="504.56" cy="356.4" r="106.36"/>
  <path class="cls-2" d="M257.44,552.6c4.72,3.39,10.57,4.82,16.32,4l22.55-3.23c1.89-.27,3.8-.41,5.7-.41.03,0,.06,0,.08,0,2.77,0,4.29-3.16,2.53-5.3-37.27-45.05-59.65-102.84-59.5-165.78.35-142.7,117.01-258.93,259.7-258.79,142.94.14,259.18,116.47,259.18,259.44,0,82.36-38.58,155.87-98.61,203.43-1.68,1.33-.57,4.03,1.56,3.77,15.68-1.9,31.64-3.28,46.86-3.28,5.45,0,10.66.18,15.64.55,3.59.26,7.09-1.17,9.44-3.91,47.41-55.21,73.52-124.61,74.1-198.05.63-79.34-29.38-156.16-83.81-213.89-60.14-63.78-142.41-98.46-229.87-97.01-80.28,1.33-157.1,34.14-213.66,91.11-57.74,58.16-89.53,135.28-89.53,217.28,0,51.04,12.33,100.19,35.56,144.05,3.71,7.01,8.86,13.15,15.11,18.04,3.4,2.66,6.95,5.32,10.65,7.97Z"/>
</svg>